<svg xmlns="http://www.w3.org/2000/svg" version="1.1" xmlns:xlink="http://www.w3.org/1999/xlink" width="1000" height="1000"><g clip-path="url(#SvgjsClipPath1046)"><rect width="1000" height="1000" fill="#ffffff"></rect><g transform="matrix(8.88888888888889,0,0,8.88888888888889,148.88888888888886,100)"><svg xmlns="http://www.w3.org/2000/svg" version="1.1" xmlns:xlink="http://www.w3.org/1999/xlink" width="79" height="90"><svg width="79" height="90" viewBox="0 0 79 90" fill="none" xmlns="http://www.w3.org/2000/svg">
<path d="M56.7507 0L78.2814 21.5326L78.1993 0H56.7507Z" fill="#AB182D"></path>
<path d="M78.2508 33.489L26.5755 33.4718L41.4157 48.0924H62.9293C61.6114 53.1442 58.5918 57.6592 54.2964 60.782L39.1391 71.7928L23.9837 60.782C18.0648 56.4827 14.5563 49.5477 14.5983 42.2327L14.6976 21.5729H60.6412L46.0378 6.96948H0.155336L0.000642748 42.1467C-0.070025 54.1564 5.69034 65.5377 15.4024 72.5969L39.141 89.8436L62.8796 72.595C72.5955 65.5377 78.3539 54.1564 78.2833 42.1334L78.2508 33.489Z" fill="#202221"></path>
</svg></svg></g></g><defs><clipPath id="SvgjsClipPath1046"><rect width="1000" height="1000" x="0" y="0" rx="100" ry="100"></rect></clipPath></defs></svg>