<svg width="88" height="86" viewBox="0 0 88 86" fill="none" xmlns="http://www.w3.org/2000/svg">
<path d="M22.4629 63.4478C21.3095 64.9398 18.412 67.7239 15.3734 64.8861C12.0073 61.7429 15.8187 56.7989 17.696 55.666L22.4629 63.4478Z" stroke="#AB182D" stroke-width="3" stroke-miterlimit="10" stroke-linecap="round" stroke-linejoin="round"/>
<path d="M20.293 73.0506C18.5587 71.4709 18.1167 69.0702 19.5718 67.1878L23.902 61.5866C25.3575 59.7038 27.9676 59.4561 29.7019 61.0362C31.4365 62.616 31.6648 65.4484 30.2094 67.3312L25.8792 72.932C24.4237 74.8144 22.0277 74.63 20.293 73.0506Z" stroke="#AB182D" stroke-width="3" stroke-miterlimit="10" stroke-linecap="round" stroke-linejoin="round"/>
<path d="M26.6004 78.7944C24.8657 77.2147 24.4237 74.8144 25.8792 72.9316L30.2093 67.3308C31.6648 65.4481 34.2749 65.2003 36.0092 66.78C37.7439 68.3598 37.9722 71.1922 36.5167 73.075L32.1865 78.6762C30.7311 80.559 28.3351 80.3746 26.6004 78.7944Z" stroke="#AB182D" stroke-width="3" stroke-miterlimit="10" stroke-linecap="round" stroke-linejoin="round"/>
<path d="M34.12 82.326C32.6462 80.9835 32.1578 79.0662 33.3947 77.4661L35.5774 74.3314C36.8143 72.7318 39.0317 72.521 40.5059 73.8635C41.9798 75.206 42.174 77.6128 40.9371 79.2128L39.683 81.014C38.4464 82.6136 36.2125 83.4431 34.12 82.326Z" stroke="#AB182D" stroke-width="3" stroke-miterlimit="10" stroke-linecap="round" stroke-linejoin="round"/>
<path d="M48.8136 79.3412C49.8716 80.2869 48.3477 81.761 46.9988 82.4739C45.7387 83.1393 42.4501 84.5155 38.7902 82.2984L40.9374 79.2145C42.1743 77.6144 41.9804 75.2076 40.5062 73.8651C39.032 72.5226 36.8145 72.7334 35.5776 74.3331L33.8676 76.789C33.8298 76.7431 33.7924 76.6964 33.7542 76.6501L36.517 73.0763C37.9725 71.1935 37.7442 68.361 36.0095 66.7812C34.2752 65.2015 31.6651 65.4493 30.2096 67.3317C31.6651 65.4493 31.4368 62.6168 29.7022 61.037C27.9675 59.4569 25.3578 59.7047 23.9023 61.5875L22.4648 63.4467C22.4603 63.4414 22.4565 63.4365 22.452 63.4308L17.696 55.667C17.69 55.6706 17.6832 55.6763 17.6769 55.68C16.2349 53.131 14.5178 50.6633 11.2494 48.4239L21.7286 28.724C21.7286 28.724 29.0547 25.0969 36.124 25.0969C39.7835 25.0969 42.5661 27.2775 42.5661 27.2775L42.7181 27.9205C38.4575 30.7022 34.4713 34.8277 33.2935 37.0894C31.3399 40.8408 31.3964 44.6932 31.3964 46.7982C31.3964 48.9036 31.3987 51.6366 33.1958 52.4417C35.0537 53.2744 37.0578 51.0025 38.8557 48.7744C42.7533 43.945 45.7698 40.8408 45.7698 40.8408L67.4861 60.5727C69.7705 62.5786 69.147 66.1346 67.5066 67.8349C65.8663 69.5353 63.3355 70.0126 61.4448 68.3403M48.8136 79.3412L46.3177 77.339C46.3177 77.339 46.647 77.4052 48.8136 79.3412ZM48.8136 79.3412C51.4327 80.5887 53.3762 79.747 54.545 78.7469C55.8736 77.61 56.2022 75.1727 55.5712 74.0463L48.9618 68.8882L55.5708 74.0442C57.6401 75.4631 60.9751 74.6324 62.0316 72.9796C63.0844 71.3316 63.0099 69.3793 61.4448 68.3403M61.4448 68.3403L52.4896 60.8461" stroke="#AB182D" stroke-width="3" stroke-miterlimit="10" stroke-linecap="round" stroke-linejoin="round"/>
<path d="M76.1351 48.4229L65.6563 28.723C65.6563 28.723 56.9993 25.0959 50.7702 25.0959C44.8869 25.0959 35.2475 33.3375 33.2939 37.0888C31.3403 40.8402 31.3968 44.6927 31.3968 46.7976C31.3968 48.903 31.399 51.636 33.1962 52.4411C35.054 53.2734 37.0582 51.0019 38.8561 48.7738C42.7536 43.9444 45.7701 40.8402 45.7701 40.8402L67.4864 60.5726C67.5006 60.5852 67.5085 60.601 67.5227 60.6136C71.8031 55.666 71.6369 50.1139 76.1351 48.4229Z" stroke="#AB182D" stroke-width="3" stroke-miterlimit="10" stroke-linecap="round" stroke-linejoin="round"/>
<path d="M7.15951 49.6121L3.26985 47.1748C1.84355 46.2812 1.35066 44.2834 2.17402 42.7358L12.6532 23.0359C13.4766 21.4878 15.3172 20.9528 16.7431 21.8465L20.6324 24.2838C22.0587 25.1774 22.5516 27.1751 21.7282 28.7228L11.249 48.4227C10.426 49.9708 8.58543 50.5057 7.15951 49.6121Z" stroke="#AB182D" stroke-width="3" stroke-miterlimit="10" stroke-linecap="round" stroke-linejoin="round"/>
<path d="M80.225 49.6123L84.1143 47.1751C85.5406 46.2814 86.0339 44.2837 85.2105 42.736L74.7313 23.0361C73.9079 21.4881 72.0674 20.9531 70.6414 21.8467L66.7518 24.284C65.3255 25.1777 64.8326 27.1754 65.6556 28.723L76.1348 48.4229C76.9585 49.971 78.7991 50.506 80.225 49.6123Z" stroke="#AB182D" stroke-width="3" stroke-miterlimit="10" stroke-linecap="round" stroke-linejoin="round"/>
<path d="M43.6509 1.66771L53.5627 12.3438L33.8152 12.3431L43.6509 1.66771Z" fill="#AB182D" stroke="#AB182D"/>
</svg>
