<svg width="32" height="16" viewBox="0 0 32 16" fill="none" xmlns="http://www.w3.org/2000/svg">
<path d="M13.4508 11.9538C12.2633 11.1787 11.4817 9.8563 11.4817 8.35541C11.4817 5.96757 13.4596 4.03186 15.901 4.03186C16.8069 4.03186 17.6497 4.29868 18.3505 4.75636" stroke="#888888" stroke-width="1.5" stroke-miterlimit="10" stroke-linecap="round" stroke-linejoin="round"/>
<path d="M19.7431 6.21899C20.1105 6.849 20.3201 7.57844 20.3201 8.35544C20.3201 10.7433 18.3409 12.679 15.9009 12.679C15.7771 12.679 15.654 12.674 15.5334 12.6648" stroke="#888888" stroke-width="1.5" stroke-miterlimit="10" stroke-linecap="round" stroke-linejoin="round"/>
<path d="M11.683 14.5504C5.72145 12.8908 1.3811 8.35542 1.3811 8.35542C1.3811 8.35542 7.88185 1.56128 15.9016 1.56128C17.3694 1.56128 18.7867 1.78919 20.1239 2.16163" stroke="#888888" stroke-width="1.5" stroke-miterlimit="10" stroke-linecap="round" stroke-linejoin="round"/>
<path d="M22.2255 2.88306C27.0766 4.85892 30.4214 8.35481 30.4214 8.35481C30.4214 8.35481 23.92 15.149 15.9009 15.149C15.18 15.149 14.4716 15.094 13.7797 14.9945" stroke="#888888" stroke-width="1.5" stroke-miterlimit="10" stroke-linecap="round" stroke-linejoin="round"/>
</svg>
