<svg width="32" height="29" viewBox="0 0 32 29" fill="none" xmlns="http://www.w3.org/2000/svg">
<path d="M13.4508 17.9538C12.2633 17.1787 11.4817 15.8563 11.4817 14.3554C11.4817 11.9676 13.4596 10.0319 15.901 10.0319C16.8069 10.0319 17.6497 10.2987 18.3505 10.7564" stroke="#888888" stroke-width="1.5" stroke-miterlimit="10" stroke-linecap="round" stroke-linejoin="round"/>
<path d="M19.7431 12.219C20.1105 12.849 20.3201 13.5784 20.3201 14.3554C20.3201 16.7433 18.3409 18.679 15.9009 18.679C15.7771 18.679 15.654 18.674 15.5334 18.6648" stroke="#888888" stroke-width="1.5" stroke-miterlimit="10" stroke-linecap="round" stroke-linejoin="round"/>
<path d="M24.7395 1.38477L7.06238 27.326" stroke="#888888" stroke-width="1.5" stroke-miterlimit="10" stroke-linecap="round" stroke-linejoin="round"/>
<path d="M11.683 20.5504C5.72145 18.8908 1.3811 14.3554 1.3811 14.3554C1.3811 14.3554 7.88185 7.56128 15.9016 7.56128C17.3694 7.56128 18.7867 7.78919 20.1239 8.16163" stroke="#888888" stroke-width="1.5" stroke-miterlimit="10" stroke-linecap="round" stroke-linejoin="round"/>
<path d="M22.2255 8.88306C27.0766 10.8589 30.4214 14.3548 30.4214 14.3548C30.4214 14.3548 23.92 21.149 15.9009 21.149C15.18 21.149 14.4716 21.094 13.7797 20.9945" stroke="#888888" stroke-width="1.5" stroke-miterlimit="10" stroke-linecap="round" stroke-linejoin="round"/>
</svg>
