<svg width="128" height="99" viewBox="0 0 128 99" fill="none" xmlns="http://www.w3.org/2000/svg">
<path d="M105.677 96.6861H2.70282L22.7107 37.3752C23.0608 36.3374 24.0442 35.6353 25.1511 35.6353H122.698C124.457 35.6353 125.697 37.3345 125.141 38.9829L105.677 96.6861Z" stroke="#AB182D" stroke-width="4" stroke-miterlimit="10" stroke-linecap="round" stroke-linejoin="round"/>
<path d="M25.1537 35.6353H105.677V17.8289C105.677 16.4247 104.526 15.2851 103.102 15.2851H53.3248C52.64 15.2851 51.9862 15.018 51.5048 14.5398L40.1416 3.31149C39.6576 2.83326 39.0037 2.56616 38.3215 2.56616H5.27717C3.85355 2.56616 2.70282 3.70578 2.70282 5.10995V96.6861L22.7107 37.3753C23.0634 36.3374 24.0442 35.6353 25.1537 35.6353Z" stroke="#AB182D" stroke-width="4" stroke-miterlimit="10" stroke-linecap="round" stroke-linejoin="round"/>
</svg>
