<svg width="72" height="80" viewBox="0 0 72 80" fill="none" xmlns="http://www.w3.org/2000/svg">
<path d="M65.1511 78.2709H7.02475C4.11844 78.2709 1.74054 75.69 1.74054 72.5356V32.3882C1.74054 29.2352 4.11844 26.6528 7.02475 26.6528H65.1511C68.0574 26.6528 70.4353 29.2352 70.4353 32.3882V72.5356C70.4353 75.69 68.0574 78.2709 65.1511 78.2709Z" stroke="#AB182D" stroke-width="3" stroke-miterlimit="10" stroke-linecap="round" stroke-linejoin="round"/>
<path d="M28.8222 56.4406L26.8406 55.9029C26.0202 55.9029 25.3544 54.9393 25.3544 53.7521V52.9621C27.2871 51.7304 28.8222 49.1796 28.8222 46.2245V37.9441C28.8222 37.9441 27.7323 39.8712 26.0559 39.8712C24.3795 39.8712 22.4415 38.3785 20.958 38.4818C15.6328 38.8589 16.9327 46.2245 16.9327 46.2245C16.9327 49.1811 18.4678 51.7304 20.4005 52.9621V53.7521C20.4005 54.9393 19.7347 55.9029 18.9143 55.9029L16.9327 56.4406C13.527 57.3553 10.988 59.8818 10.988 63.4305V66.9793H15.7438H30.0111H34.7669V63.4305C34.7669 59.8832 32.2279 57.3553 28.8222 56.4406Z" stroke="#AB182D" stroke-width="3" stroke-miterlimit="10" stroke-linecap="round" stroke-linejoin="round"/>
<path d="M61.188 43.9305H44.0143C43.9786 43.9305 43.9482 43.8989 43.9482 43.8588C43.9482 43.8186 43.9773 43.7871 44.0143 43.7871H61.188C61.2236 43.7871 61.254 43.8186 61.254 43.8588C61.254 43.8989 61.2236 43.9305 61.188 43.9305Z" stroke="#AB182D" stroke-width="3" stroke-miterlimit="10" stroke-linecap="round" stroke-linejoin="round"/>
<path d="M61.188 52.5335H44.0143C43.9786 52.5335 43.9482 52.502 43.9482 52.4618C43.9482 52.4217 43.9773 52.3901 44.0143 52.3901H61.188C61.2236 52.3901 61.254 52.4217 61.254 52.4618C61.254 52.502 61.2236 52.5335 61.188 52.5335Z" stroke="#AB182D" stroke-width="3" stroke-miterlimit="10" stroke-linecap="round" stroke-linejoin="round"/>
<path d="M61.188 61.1365H44.0143C43.9786 61.1365 43.9482 61.105 43.9482 61.0648C43.9482 61.0247 43.9773 60.9932 44.0143 60.9932H61.188C61.2236 60.9932 61.254 61.0247 61.254 61.0648C61.254 61.105 61.2236 61.1365 61.188 61.1365Z" stroke="#AB182D" stroke-width="3" stroke-miterlimit="10" stroke-linecap="round" stroke-linejoin="round"/>
<path d="M36.0466 1.66795L45.9583 12.344L26.2109 12.3433L36.0466 1.66795Z" fill="#AB182D" stroke="#AB182D"/>
</svg>
