<svg width="139" height="97" viewBox="0 0 139 97" fill="none" xmlns="http://www.w3.org/2000/svg">
<path d="M125.723 94.4143H12.4521C6.78855 94.4143 2.15472 89.8355 2.15472 84.2392V13.0133C2.15472 7.41949 6.78855 2.83813 12.4521 2.83813H125.723C131.387 2.83813 136.021 7.41949 136.021 13.0133V84.2392C136.021 89.8355 131.387 94.4143 125.723 94.4143Z" stroke="#AB182D" stroke-width="4" stroke-miterlimit="10" stroke-linecap="round" stroke-linejoin="round"/>
<path d="M54.9289 55.6852L51.0674 54.7312C49.4687 54.7312 48.1712 53.0218 48.1712 50.9156V49.5139C51.9375 47.3288 54.9289 42.8034 54.9289 37.5607V22.8704C54.9289 22.8704 52.8051 26.2892 49.5382 26.2892C46.2714 26.2892 42.4948 23.6411 39.6038 23.8243C29.2266 24.4933 31.7597 37.5607 31.7597 37.5607C31.7597 42.806 34.7511 47.3288 38.5174 49.5139V50.9156C38.5174 53.0218 37.2199 54.7312 35.6213 54.7312L31.7597 55.6852C25.1231 57.3081 20.1752 61.7902 20.1752 68.0861V74.382H29.4428H57.2458H66.5134V68.0861C66.5134 61.7928 61.5655 57.3081 54.9289 55.6852Z" stroke="#AB182D" stroke-width="4" stroke-miterlimit="10" stroke-linecap="round" stroke-linejoin="round"/>
<path d="M118 33.4906H84.534C84.4645 33.4906 84.4053 33.4347 84.4053 33.3635C84.4053 33.2923 84.4619 33.2363 84.534 33.2363H118C118.07 33.2363 118.129 33.2923 118.129 33.3635C118.129 33.4347 118.07 33.4906 118 33.4906Z" stroke="#AB182D" stroke-width="4" stroke-miterlimit="10" stroke-linecap="round" stroke-linejoin="round"/>
<path d="M118 48.7533H84.534C84.4645 48.7533 84.4053 48.6974 84.4053 48.6262C84.4053 48.555 84.4619 48.499 84.534 48.499H118C118.07 48.499 118.129 48.555 118.129 48.6262C118.129 48.6974 118.07 48.7533 118 48.7533Z" stroke="#AB182D" stroke-width="4" stroke-miterlimit="10" stroke-linecap="round" stroke-linejoin="round"/>
<path d="M118 64.016H84.534C84.4645 64.016 84.4053 63.9601 84.4053 63.8889C84.4053 63.8177 84.4619 63.7617 84.534 63.7617H118C118.07 63.7617 118.129 63.8177 118.129 63.8889C118.129 63.9601 118.07 64.016 118 64.016Z" stroke="#AB182D" stroke-width="4" stroke-miterlimit="10" stroke-linecap="round" stroke-linejoin="round"/>
</svg>
