<svg width="222" height="56" viewBox="0 0 222 56" fill="none" xmlns="http://www.w3.org/2000/svg">
<path d="M35.5478 0.47168L48.6693 13.5944L48.6193 0.47168H35.5478Z" fill="#AB182D"/>
<path d="M48.6507 20.8809L17.1579 20.8704L26.2021 29.7807H39.3132C38.51 32.8595 36.6698 35.6111 34.052 37.5142L24.8146 44.2246L15.5784 37.5142C11.9712 34.8941 9.83301 30.6677 9.85862 26.2096L9.91915 13.6188H37.9187L29.0189 4.71899H1.05657L0.962291 26.1572C0.919223 33.4764 4.42979 40.4125 10.3486 44.7146L24.8158 55.2254L39.2829 44.7135C45.2041 40.4125 48.7135 33.4764 48.6705 26.1491L48.6507 20.8809Z" fill="#202221"/>
<path d="M72.354 46.4629H70.8874V55.0601H72.354V46.4629Z" fill="#202221"/>
<path d="M85.4779 55.2242L80.0945 49.5475V55.0601H78.6302V46.3454L78.8641 46.2988L84.1754 51.8929V46.4629H85.6432V55.1893L85.4779 55.2242Z" fill="#202221"/>
<path d="M95.416 47.8003V55.0601H93.9482V47.8003H91.2163V46.4629H98.135V47.8003H95.416Z" fill="#202221"/>
<path d="M103.708 55.0601V46.4629H108.95V47.8003H105.173V50.0526H108.587V51.3423H105.173V53.7227H108.95V55.0601H103.708Z" fill="#202221"/>
<path d="M119.684 55.0611L117.806 51.9649C117.654 51.9766 117.514 51.9766 117.349 51.9766C117.068 51.9766 116.775 51.9649 116.493 51.9521V55.0611H115.027V46.5454C115.708 46.464 116.422 46.4058 117.291 46.4058C119.73 46.4058 120.808 47.5895 120.808 49.1143C120.808 50.2283 120.2 51.1315 119.132 51.6006L121.385 55.0611H119.684ZM117.478 47.7176C117.127 47.7176 116.786 47.7292 116.493 47.7874V50.7195C116.763 50.7556 117.056 50.7672 117.338 50.7672C118.617 50.7672 119.261 50.1689 119.261 49.1842C119.261 48.317 118.605 47.7176 117.478 47.7176Z" fill="#202221"/>
<path d="M133.631 55.2242L128.247 49.5475V55.0601H126.782V46.3454L127.016 46.2988L132.327 51.8929V46.4629H133.794V55.1893L133.631 55.2242Z" fill="#202221"/>
<path d="M145.616 55.06L144.784 53.0894H141.383L140.551 55.06H139.037L143.001 46.3464H143.213L147.165 55.06H145.616ZM143.085 49.055L141.865 51.9289H144.304L143.085 49.055Z" fill="#202221"/>
<path d="M155.261 47.8003V55.0601H153.794V47.8003H151.061V46.4629H157.981V47.8003H155.261Z" fill="#202221"/>
<path d="M165.079 46.4629H163.613V55.0601H165.079V46.4629Z" fill="#202221"/>
<path d="M175.365 55.2009C172.879 55.2009 171.061 53.313 171.061 50.7673C171.061 48.2112 172.962 46.3232 175.448 46.3232C177.934 46.3232 179.752 48.2112 179.752 50.7673C179.752 53.313 177.853 55.2009 175.365 55.2009ZM175.412 47.6362C173.771 47.6362 172.632 48.9736 172.632 50.7673C172.632 52.5505 173.771 53.8996 175.412 53.8996C177.041 53.8996 178.18 52.5505 178.18 50.7673C178.18 48.9736 177.043 47.6362 175.412 47.6362Z" fill="#202221"/>
<path d="M192.526 55.2242L187.142 49.5475V55.0601H185.676V46.3454L185.911 46.2988L191.223 51.8929V46.4629H192.69V55.1893L192.526 55.2242Z" fill="#202221"/>
<path d="M204.513 55.06L203.68 53.0894H200.279L199.447 55.06H197.934L201.896 46.3464H202.109L206.062 55.06H204.513ZM201.98 49.055L200.76 51.9289H203.2L201.98 49.055Z" fill="#202221"/>
<path d="M211.307 55.0601V46.4629H212.772V53.7227H216.549V55.0601H211.307Z" fill="#202221"/>
<path d="M117.13 31.9387V35.9323C114.87 36.8949 112.028 37.52 108.613 37.52C103.559 37.52 97.5438 35.4027 97.5438 25.3936C97.5438 22.2648 97.5438 12.6887 108.18 12.6887C114.629 12.6887 118.767 17.2609 118.767 24.2866C118.767 25.4413 118.719 26.5483 118.624 27.6075H102.067C102.741 32.6115 105.677 33.7184 108.853 33.7184C112.414 33.7184 115.108 32.9967 117.13 31.9387ZM102.019 23.6127H114.339C114.098 20.8226 112.943 16.6358 108.179 16.6358C104.137 16.6358 102.405 18.4632 102.019 23.6127Z" fill="#202221"/>
<path d="M124.831 37.0871V15.1437C125.024 15.0471 129.451 12.6411 135.083 12.6411C141.147 12.6411 144.755 16.0097 144.755 21.591V37.0871H140.328V21.3023C140.328 19.0419 139.702 16.7313 134.89 16.7313C132.724 16.7313 130.75 17.1166 129.259 17.5974V37.0871H124.831Z" fill="#202221"/>
<path d="M170.598 31.9387V35.9323C168.337 36.8949 165.496 37.52 162.081 37.52C157.027 37.52 151.011 35.4027 151.011 25.3936C151.011 22.2648 151.011 12.6887 161.648 12.6887C168.096 12.6887 172.234 17.2609 172.234 24.2866C172.234 25.4413 172.187 26.5483 172.091 27.6075H155.536C156.21 32.6115 159.145 33.7184 162.322 33.7184C165.882 33.7184 168.577 32.9967 170.598 31.9387ZM155.488 23.6127H167.808C167.567 20.8226 166.412 16.6358 161.648 16.6358C157.604 16.6358 155.873 18.4632 155.488 23.6127Z" fill="#202221"/>
<path d="M197.982 13.074L188.741 37.0869H184.219L175.028 13.074H179.743L186.48 31.7931L193.266 13.074H197.982Z" fill="#202221"/>
<path d="M221.179 22.7467V29.6759C221.179 31.5045 220.456 37.4722 211.215 37.4722C201.784 37.4722 201.061 31.4091 201.061 29.5316C201.061 24.7674 205.297 21.9284 212.371 21.9284C213.911 21.9284 215.354 22.025 216.75 22.2171C216.558 18.2712 214.825 16.5392 210.11 16.5392C207.367 16.5392 205.008 17.212 203.468 17.7416V13.9877C205.248 13.3138 207.655 12.6887 210.734 12.6887C217.425 12.6887 221.179 16.2505 221.179 22.7467ZM216.751 25.73C215.597 25.5379 214.154 25.4413 212.565 25.4413C210.495 25.4413 205.441 26.0664 205.441 29.4838C205.441 32.2262 207.416 33.5741 211.216 33.5741C214.876 33.5741 216.751 32.2751 216.751 29.6282V25.73Z" fill="#202221"/>
<path d="M86.8107 23.9294V32.5149C84.7411 33.0922 82.575 33.4298 80.3622 33.4298C75.2617 33.4298 69.3905 32.0342 69.3905 21.0136C69.3905 10.0419 75.2128 8.64627 80.2668 8.64627C83.6831 8.64627 86.9073 9.32022 89.9395 10.5703V6.4801C86.763 5.22998 83.3467 4.60376 79.8338 4.60376C73.0001 4.60376 64.915 7.44388 64.915 21.0136C64.915 34.6322 73.0001 37.4723 79.8338 37.4723C83.7797 37.4723 87.5813 36.6051 91.1419 34.922V27.4655L86.8107 23.9294Z" fill="#202221"/>
<path d="M81.0723 19.2932L91.1419 27.5098L91.1034 19.2932H81.0723Z" fill="#AB182D"/>
</svg>
