<svg width="141" height="97" viewBox="0 0 141 97" fill="none" xmlns="http://www.w3.org/2000/svg">
<path d="M35.7974 64.8279C33.9289 67.0283 29.2352 71.1342 24.3131 66.9492C18.8604 62.3137 25.0345 55.0226 28.0755 53.3518L35.7974 64.8279Z" stroke="#AB182D" stroke-width="4" stroke-miterlimit="10" stroke-linecap="round" stroke-linejoin="round"/>
<path d="M32.2823 78.9898C29.4729 76.66 28.7569 73.1196 31.114 70.3436L38.1284 62.0832C40.4861 59.3065 44.7141 58.9411 47.5235 61.2714C50.3335 63.6012 50.7033 67.7784 48.3456 70.555L41.3312 78.8148C38.9735 81.5909 35.0923 81.3189 32.2823 78.9898Z" stroke="#AB182D" stroke-width="4" stroke-miterlimit="10" stroke-linecap="round" stroke-linejoin="round"/>
<path d="M42.4995 87.4604C39.6895 85.1307 38.9735 81.5909 41.3313 78.8143L48.3456 70.5545C50.7034 67.7778 54.9314 67.4124 57.7408 69.7421C60.5508 72.0719 60.9206 76.2491 58.5628 79.0257L51.5485 87.2861C49.1908 90.0627 45.3095 89.7908 42.4995 87.4604Z" stroke="#AB182D" stroke-width="4" stroke-miterlimit="10" stroke-linecap="round" stroke-linejoin="round"/>
<path d="M54.6805 92.6688C52.2931 90.6889 51.5019 87.8614 53.5056 85.5017L57.0413 80.8788C59.045 78.5197 62.637 78.2088 65.025 80.1887C67.4125 82.1686 67.7271 85.718 65.7235 88.0776L63.6919 90.7339C61.6888 93.093 58.0701 94.3162 54.6805 92.6688Z" stroke="#AB182D" stroke-width="4" stroke-miterlimit="10" stroke-linecap="round" stroke-linejoin="round"/>
<path d="M78.4822 88.2664C80.1961 89.661 77.7275 91.835 75.5425 92.8863C73.5013 93.8676 68.1741 95.8972 62.2455 92.6275L65.7236 88.0795C67.7273 85.7198 67.4132 82.1704 65.0252 80.1905C62.6372 78.2106 59.0451 78.5215 57.0414 80.8806L54.2714 84.5025C54.2102 84.4348 54.1496 84.3659 54.0878 84.2976L58.5631 79.0271C60.9209 76.2505 60.551 72.0733 57.7411 69.7435C54.9317 67.4138 50.7036 67.7792 48.3459 70.5553C50.7036 67.7792 50.3338 63.602 47.5238 61.2723C44.7138 58.9419 40.4864 59.3074 38.1287 62.084L35.8001 64.8259C35.7928 64.8181 35.7867 64.8109 35.7795 64.8025L28.0752 53.3527C28.0655 53.3581 28.0546 53.3665 28.0443 53.3719C25.7084 49.6128 22.9269 45.9736 17.6324 42.671L34.6076 13.6185C34.6076 13.6185 46.475 8.26953 57.9266 8.26953C63.8545 8.26953 68.362 11.4853 68.362 11.4853L68.6082 12.4336C61.7066 16.5359 55.2493 22.6199 53.3415 25.9555C50.1768 31.4878 50.2684 37.1692 50.2684 40.2735C50.2684 43.3785 50.272 47.4089 53.1832 48.5962C56.1927 49.8243 59.4392 46.4738 62.3516 43.1879C68.6652 36.0658 73.5516 31.4878 73.5516 31.4878L108.73 60.5876C112.43 63.5457 111.42 68.7898 108.763 71.2975C106.106 73.8051 102.006 74.509 98.9433 72.0427M78.4822 88.2664L74.4391 85.3136C74.4391 85.3136 74.9726 85.4113 78.4822 88.2664ZM78.4822 88.2664C82.7248 90.1061 85.8731 88.8648 87.7664 87.39C89.9186 85.7132 90.4509 82.1189 89.4288 80.4577L78.7223 72.8508L89.4282 80.4547C92.7802 82.5472 98.1825 81.3221 99.8939 78.8845C101.599 76.4542 101.479 73.5751 98.9433 72.0427M98.9433 72.0427L84.4369 60.9907" stroke="#AB182D" stroke-width="4" stroke-miterlimit="10" stroke-linecap="round" stroke-linejoin="round"/>
<path d="M122.74 42.6697L105.766 13.6173C105.766 13.6173 91.7424 8.26831 81.6519 8.26831C72.1215 8.26831 56.5068 20.4226 53.3422 25.9549C50.1775 31.4871 50.2691 37.1686 50.2691 40.2729C50.2691 43.3778 50.2727 47.4083 53.1839 48.5956C56.1934 49.8231 59.4399 46.4732 62.3523 43.1873C68.6659 36.0651 73.5523 31.4871 73.5523 31.4871L108.73 60.5875C108.753 60.6061 108.766 60.6295 108.789 60.648C115.723 53.3515 115.454 45.1636 122.74 42.6697Z" stroke="#AB182D" stroke-width="4" stroke-miterlimit="10" stroke-linecap="round" stroke-linejoin="round"/>
<path d="M11.0075 44.4239L4.70665 40.8296C2.39621 39.5117 1.59778 36.5655 2.93154 34.2831L19.9067 5.23063C21.2404 2.94763 24.222 2.15867 26.5318 3.4766L32.832 7.07094C35.1425 8.38887 35.9409 11.335 34.6071 13.6174L17.632 42.6699C16.2989 44.9529 13.3173 45.7418 11.0075 44.4239Z" stroke="#AB182D" stroke-width="4" stroke-miterlimit="10" stroke-linecap="round" stroke-linejoin="round"/>
<path d="M129.365 44.4239L135.665 40.8296C137.976 39.5117 138.775 36.5655 137.441 34.2831L120.466 5.23063C119.132 2.94763 116.151 2.15867 113.841 3.4766L107.54 7.07094C105.23 8.38887 104.431 11.335 105.764 13.6174L122.739 42.6699C124.074 44.9529 127.055 45.7418 129.365 44.4239Z" stroke="#AB182D" stroke-width="4" stroke-miterlimit="10" stroke-linecap="round" stroke-linejoin="round"/>
</svg>
